<?xml version="1.0" encoding="utf-8"?>
<!-- Generator: Adobe Illustrator 23.0.6, SVG Export Plug-In . SVG Version: 6.00 Build 0)  -->
<svg version="1.1" id="Слой_1" xmlns="http://www.w3.org/2000/svg" xmlns:xlink="http://www.w3.org/1999/xlink" x="0px" y="0px"
	 viewBox="0 0 442 34" style="enable-background:new 0 0 442 34;" xml:space="preserve">
<style type="text/css">
	.st0{fill:#FFFFFF;stroke:#F96D63;}
	.st1{fill:#F96D63;}
	.st2{fill:#FFFFFF;}
</style>
<path class="st0" d="M94.2,1h343.6c1.8,0,3.2,1.8,3.2,4v24c0,2.2-1.4,4-3.2,4H94.2c-1.8,0-3.2-1.8-3.2-4V5C91,2.8,92.4,1,94.2,1z"/>
<path class="st1" d="M295.6,5.8c0.5-0.5,1.3-0.8,2-0.8H433c2.2,0,4,1.8,4,4v16c0,2.2-1.8,4-4,4H297.6c-0.7,0-1.4-0.3-2-0.8l-10.1-9
	c-1.3-1.2-1.3-3.3,0-4.5L295.6,5.8z"/>
<path class="st2" d="M308.5,21h-1.4l0.4-2.6h-2.4l-0.4,2.6h-1.4l1.1-6.3h1.4l-0.5,2.6h2.4l0.5-2.6h1.4L308.5,21z M312.8,21.1
	c-0.6,0-1-0.2-1.4-0.4c-0.4-0.3-0.7-0.6-0.9-1.1c-0.2-0.5-0.3-1-0.2-1.5l0-0.2c0.1-0.6,0.3-1.2,0.6-1.7c0.3-0.5,0.7-0.9,1.1-1.2
	c0.5-0.3,1-0.4,1.5-0.4c0.8,0,1.4,0.3,1.8,0.9c0.4,0.6,0.5,1.3,0.5,2.2l-0.1,0.6h-4c0,0.5,0.1,0.9,0.3,1.2s0.6,0.5,1,0.5
	c0.6,0,1.1-0.2,1.7-0.8l0.7,0.7c-0.3,0.4-0.6,0.7-1,0.9C313.8,21,313.3,21.1,312.8,21.1z M313.4,15.7c-0.7,0-1.3,0.5-1.7,1.6l2.6,0
	l0-0.1c0-0.2,0-0.4,0-0.5c0-0.3-0.2-0.5-0.3-0.7C313.9,15.8,313.7,15.7,313.4,15.7z M321.4,21H320l0.9-5.2h-2.4l-0.9,5.2h-1.4
	l1.1-6.3h5.2L321.4,21z M328.7,17.9c-0.1,0.6-0.2,1.2-0.5,1.7c-0.3,0.5-0.6,0.9-1,1.2c-0.4,0.3-0.8,0.4-1.3,0.4
	c-0.7,0-1.2-0.3-1.6-0.7l-0.6,3h-1.4l1.5-8.8l1.3,0l-0.1,0.7c0.5-0.5,1.1-0.8,1.7-0.8c0.4,0,0.8,0.1,1,0.3c0.3,0.2,0.5,0.5,0.7,0.9
	c0.2,0.4,0.2,0.8,0.3,1.3C328.7,17.2,328.7,17.5,328.7,17.9z M327.3,17.7l0-0.4c0-0.5-0.1-0.9-0.3-1.2c-0.2-0.3-0.4-0.4-0.8-0.4
	c-0.5,0-1,0.2-1.4,0.7l-0.5,2.8c0.2,0.5,0.5,0.7,1.1,0.7c0.5,0,0.8-0.2,1.2-0.5C327,19.1,327.2,18.5,327.3,17.7z M333,21
	c0-0.2-0.1-0.4-0.1-0.6c-0.5,0.5-1.1,0.7-1.7,0.7c-0.6,0-1-0.2-1.4-0.5c-0.4-0.3-0.5-0.8-0.5-1.3c0-0.7,0.3-1.2,0.9-1.6
	c0.5-0.4,1.3-0.6,2.2-0.6l0.9,0l0.1-0.4c0-0.2,0-0.3,0-0.4c-0.1-0.4-0.4-0.6-0.8-0.7c-0.3,0-0.6,0.1-0.8,0.2
	c-0.2,0.2-0.4,0.4-0.4,0.6l-1.4,0c0-0.4,0.2-0.7,0.4-1c0.3-0.3,0.6-0.5,1-0.7c0.4-0.2,0.9-0.2,1.3-0.2c0.7,0,1.2,0.2,1.6,0.6
	c0.4,0.4,0.5,0.9,0.5,1.6l-0.5,3l0,0.5c0,0.2,0,0.5,0.1,0.7l0,0.1H333z M331.6,20c0.3,0,0.6-0.1,0.8-0.2c0.3-0.1,0.5-0.3,0.6-0.6
	l0.2-1.2l-0.7,0c-0.5,0-0.9,0.1-1.3,0.3c-0.3,0.2-0.5,0.5-0.5,0.8c0,0.3,0,0.5,0.2,0.6C331.1,19.9,331.3,20,331.6,20z M335.6,21
	l1.1-6.3l2.4,0c0.6,0,1.1,0.1,1.4,0.3c0.6,0.3,0.9,0.8,0.9,1.4c0,0.6-0.5,1.1-1.3,1.4c0.3,0.1,0.6,0.3,0.8,0.5
	c0.2,0.2,0.3,0.5,0.3,0.9c0,0.6-0.3,1-0.7,1.4c-0.5,0.3-1.1,0.5-1.9,0.5H335.6z M337.5,18.3l-0.3,1.6l1.4,0c0.4,0,0.7-0.1,0.9-0.2
	c0.2-0.1,0.3-0.3,0.4-0.6c0-0.2,0-0.4-0.2-0.5c-0.1-0.1-0.4-0.2-0.7-0.2L337.5,18.3z M337.6,17.3l1.1,0c0.8,0,1.3-0.3,1.4-0.8
	c0-0.2,0-0.4-0.2-0.5c-0.1-0.1-0.4-0.2-0.8-0.2l-1.2,0L337.6,17.3z M347,14.7h1.4l-1.1,6.3h-1.4l0.7-4.1l-3.1,4.1h-1.4l1.1-6.3h1.4
	l-0.7,4.1L347,14.7z M355,14.7l-1.1,6.3h-1.4l0.9-5.2h-1.7l-0.6,2.6c-0.2,0.9-0.5,1.5-0.9,2c-0.4,0.4-0.9,0.6-1.5,0.6h-0.5l0.1-1.2
	l0.2,0c0.4,0,0.6-0.2,0.9-0.5c0.2-0.3,0.4-0.8,0.5-1.5l0.1-0.5l0.6-2.7H355z M357.6,16.7l1.3,0c0.7,0,1.2,0.2,1.6,0.6
	c0.4,0.4,0.6,0.9,0.6,1.5c0,0.7-0.3,1.2-0.8,1.6c-0.5,0.4-1.2,0.6-2,0.6h-2.8l1.1-6.3h1.4L357.6,16.7z M357.4,17.8l-0.4,2l1.3,0
	c0.4,0,0.7-0.1,0.9-0.3c0.2-0.2,0.4-0.4,0.4-0.8c0-0.3,0-0.5-0.2-0.7c-0.1-0.2-0.4-0.3-0.7-0.3L357.4,17.8z M366.9,21h-1.4l0.4-2.6
	h-2.4l-0.4,2.6h-1.4l1.1-6.3h1.4l-0.5,2.6h2.4l0.5-2.6h1.4L366.9,21z M370.5,16.7l1.3,0c0.7,0,1.2,0.2,1.6,0.6
	c0.4,0.4,0.6,0.9,0.6,1.5c0,0.7-0.3,1.2-0.8,1.6c-0.5,0.4-1.2,0.6-2,0.6h-2.8l1.1-6.3h1.4L370.5,16.7z M370.4,17.8l-0.4,2l1.3,0
	c0.4,0,0.7-0.1,0.9-0.3c0.2-0.2,0.4-0.4,0.4-0.8c0-0.3,0-0.5-0.2-0.7c-0.1-0.2-0.4-0.3-0.7-0.3L370.4,17.8z M376,21h-1.4l1.1-6.3
	h1.4L376,21z M382.5,14.7h1.4l-1.1,6.3h-1.4l0.7-4.1l-3.1,4.1h-1.4l1.1-6.3h1.4l-0.7,4.1L382.5,14.7z M383.6,12.2
	c0,0.5-0.2,0.9-0.6,1.2c-0.4,0.3-0.8,0.4-1.3,0.4c-0.5,0-0.9-0.2-1.2-0.5c-0.3-0.3-0.5-0.7-0.5-1.2l1,0c0,0.5,0.2,0.8,0.7,0.8
	c0.3,0,0.5-0.1,0.6-0.2c0.1-0.2,0.2-0.3,0.3-0.6L383.6,12.2z M390.1,14.5c0.3,0,0.5,0.1,0.8,0.2l0.5-2.7h1.4l-0.5,2.7
	c0.3-0.1,0.6-0.2,0.8-0.2c0.6,0,1,0.2,1.4,0.7c0.3,0.5,0.5,1.1,0.5,1.9c0,0.3,0,0.5,0,0.7l0,0.2c-0.1,0.6-0.3,1.2-0.5,1.7
	c-0.3,0.5-0.6,0.8-0.9,1s-0.8,0.3-1.2,0.3c-0.3,0-0.6-0.1-0.9-0.2l-0.5,2.5h-1.4l0.5-2.5c-0.2,0.1-0.5,0.1-0.8,0.1
	c-0.6,0-1-0.2-1.3-0.6c-0.3-0.4-0.5-1-0.5-1.7c0-0.2,0-0.5,0-0.7l0-0.3c0.1-0.7,0.3-1.3,0.5-1.8c0.3-0.5,0.6-0.9,0.9-1.1
	C389.2,14.6,389.7,14.5,390.1,14.5z M393.5,17.9c0-0.4,0.1-0.6,0-0.9c0-0.8-0.3-1.3-0.9-1.3c-0.1,0-0.3,0-0.5,0.1l-0.8,4.2
	c0.2,0,0.3,0.1,0.5,0.1C392.8,20,393.3,19.3,393.5,17.9z M388.8,18.1c0,0.3,0,0.6,0,0.8c0,0.7,0.3,1.1,0.9,1.1c0.1,0,0.2,0,0.5,0
	l0.8-4.2c-0.1,0-0.3-0.1-0.4-0.1c-0.8,0-1.4,0.7-1.6,2.1L388.8,18.1z M395.8,17.8c0.1-0.6,0.2-1.2,0.5-1.7c0.3-0.5,0.7-0.9,1.2-1.2
	c0.5-0.3,1-0.4,1.6-0.4c0.5,0,1,0.2,1.4,0.4c0.4,0.3,0.7,0.7,0.9,1.2c0.2,0.5,0.2,1,0.2,1.6c-0.1,0.7-0.2,1.3-0.5,1.8
	c-0.3,0.5-0.7,0.9-1.2,1.2c-0.5,0.3-1,0.4-1.6,0.4c-0.5,0-1-0.2-1.4-0.4c-0.4-0.3-0.7-0.7-0.9-1.1c-0.2-0.5-0.3-1-0.2-1.6
	L395.8,17.8z M397.2,18.6c0,0.4,0.1,0.7,0.3,1c0.2,0.2,0.5,0.4,0.8,0.4c0.5,0,0.9-0.2,1.2-0.6c0.3-0.4,0.5-0.9,0.6-1.6l0-0.6
	c0-0.5-0.1-0.9-0.3-1.2c-0.2-0.3-0.5-0.4-0.9-0.5c-0.6,0-1.1,0.3-1.4,0.9c-0.2,0.4-0.3,0.8-0.4,1.3
	C397.2,18.1,397.2,18.4,397.2,18.6z M408,17.9c-0.1,0.6-0.2,1.2-0.5,1.7c-0.3,0.5-0.6,0.9-1,1.2c-0.4,0.3-0.8,0.4-1.3,0.4
	c-0.7,0-1.2-0.3-1.6-0.7l-0.6,3h-1.4l1.5-8.8l1.3,0l-0.1,0.7c0.5-0.5,1.1-0.8,1.7-0.8c0.4,0,0.8,0.1,1,0.3c0.3,0.2,0.5,0.5,0.7,0.9
	c0.2,0.4,0.2,0.8,0.3,1.3C408,17.2,408,17.5,408,17.9z M406.6,17.7l0-0.4c0-0.5-0.1-0.9-0.3-1.2c-0.2-0.3-0.4-0.4-0.8-0.4
	c-0.5,0-1,0.2-1.4,0.7l-0.5,2.8c0.2,0.5,0.5,0.7,1.1,0.7c0.5,0,0.8-0.2,1.2-0.5C406.3,19.1,406.5,18.5,406.6,17.7z M412.5,19.2
	l2.6-4.6h1.8l-1.1,6.3h-1.4l0.7-4.1l-2.4,4.1h-0.9l-1-4.3L410,21h-1.4l1.1-6.3h1.7L412.5,19.2z M421,21c0-0.2-0.1-0.4-0.1-0.6
	c-0.5,0.5-1.1,0.7-1.7,0.7c-0.6,0-1-0.2-1.4-0.5c-0.4-0.3-0.5-0.8-0.5-1.3c0-0.7,0.3-1.2,0.9-1.6c0.5-0.4,1.3-0.6,2.2-0.6l0.9,0
	l0.1-0.4c0-0.2,0-0.3,0-0.4c-0.1-0.4-0.4-0.6-0.8-0.7c-0.3,0-0.6,0.1-0.8,0.2c-0.2,0.2-0.4,0.4-0.4,0.6l-1.4,0c0-0.4,0.2-0.7,0.4-1
	c0.3-0.3,0.6-0.5,1-0.7c0.4-0.2,0.9-0.2,1.3-0.2c0.7,0,1.2,0.2,1.6,0.6c0.4,0.4,0.5,0.9,0.5,1.6l-0.5,3l0,0.5c0,0.2,0,0.5,0.1,0.7
	l0,0.1H421z M419.6,20c0.3,0,0.6-0.1,0.8-0.2c0.3-0.1,0.5-0.3,0.6-0.6l0.2-1.2l-0.7,0c-0.5,0-0.9,0.1-1.3,0.3
	c-0.3,0.2-0.5,0.5-0.5,0.8c0,0.3,0,0.5,0.2,0.6C419.1,19.9,419.3,20,419.6,20z M429.1,15.8h-2l-0.9,5.2h-1.4l0.9-5.2h-2l0.2-1.1h5.4
	L429.1,15.8z"/>
</svg>
